<?xml version="1.0" standalone="no"?><!DOCTYPE svg PUBLIC "-//W3C//DTD SVG 1.1//EN" "http://www.w3.org/Graphics/SVG/1.1/DTD/svg11.dtd"><svg t="1594221489021" class="icon" viewBox="0 0 1024 1024" version="1.1" xmlns="http://www.w3.org/2000/svg" p-id="1428" xmlns:xlink="http://www.w3.org/1999/xlink" width="200" height="200"><defs><style type="text/css"></style></defs><path d="M192 469.333333h-85.333333V384H42.666667v256h64v-106.666667h85.333333V640H256V384H192v85.333333z m106.666667-21.333333h64V640H426.666667v-192h64V384H298.666667v64z m234.666666 0H597.333333V640h64v-192H725.333333V384h-192v64z m384-64H768v256h64v-85.333333h85.333333c34.133333 0 64-29.866667 64-64v-42.666667c0-34.133333-29.866667-64-64-64z m0 106.666667h-85.333333v-42.666667h85.333333v42.666667z" p-id="1429" fill="#d81e06"></path></svg>